<svg width="360" height="215" viewBox="0 0 360 215" fill="none" xmlns="http://www.w3.org/2000/svg">
<g filter="url(#filter0_i_616_23)">
<path fill-rule="evenodd" clip-rule="evenodd" d="M0.734663 142.194C44.8386 129.73 8.64004 97.0991 24.0319 76.7561C42.7292 52.0446 190.194 20.8444 180.573 -20.01C151.609 -85.064 64.5303 -45.6866 42.6585 -69.179C21.4548 -91.954 -15.7339 -127.662 -44.6046 -139.301C-72.2392 -150.441 -131.42 -150.161 -140.66 -96.5344C-146.554 -56.1975 -128.2 -46.348 -141.303 -25.736C-155.177 -3.91069 -176.987 14.184 -178.869 39.9658C-180.909 67.9064 -172.847 98.8945 -151.745 117.32C-131.206 135.253 -100.223 127.752 -73.3001 132.144C-48.1044 136.254 -22.5346 152.711 0.734663 142.194Z" fill="#162C4E"/>
</g>
<g clip-path="url(#clip0_616_23)">
<g filter="url(#filter1_i_616_23)">
<path fill-rule="evenodd" clip-rule="evenodd" d="M702.073 -5.30194C720.523 -83.5491 639.618 -55.8287 621.518 -96.7569C599.531 -146.474 677.288 -399.181 606.408 -419.22C481.92 -430.206 468.154 -263.137 413.476 -249.604C360.468 -236.484 273.999 -209.866 231.546 -175.505C190.911 -142.615 140.924 -51.6226 215.332 8.21729C272.201 51.6077 302.949 31.8502 323.412 69.4971C345.079 109.36 354.261 158.217 392.215 183.059C433.348 209.982 487.762 224.009 534.009 207.341C579.021 191.118 593.907 137.218 623.582 99.6716C651.353 64.5345 698.387 39.3385 702.073 -5.30194Z" fill="#162C4E"/>
</g>
</g>
<defs>
<filter id="filter0_i_616_23" x="-179.175" y="-145.12" width="360.198" height="294.77" filterUnits="userSpaceOnUse" color-interpolation-filters="sRGB">
<feFlood flood-opacity="0" result="BackgroundImageFix"/>
<feBlend mode="normal" in="SourceGraphic" in2="BackgroundImageFix" result="shape"/>
<feColorMatrix in="SourceAlpha" type="matrix" values="0 0 0 0 0 0 0 0 0 0 0 0 0 0 0 0 0 0 127 0" result="hardAlpha"/>
<feOffset dy="4"/>
<feGaussianBlur stdDeviation="15"/>
<feComposite in2="hardAlpha" operator="arithmetic" k2="-1" k3="1"/>
<feColorMatrix type="matrix" values="0 0 0 0 0 0 0 0 0 0 0 0 0 0 0 0 0 0 1 0"/>
<feBlend mode="normal" in2="shape" result="effect1_innerShadow_616_23"/>
</filter>
<filter id="filter1_i_616_23" x="177.049" y="-419.739" width="527.741" height="638.275" filterUnits="userSpaceOnUse" color-interpolation-filters="sRGB">
<feFlood flood-opacity="0" result="BackgroundImageFix"/>
<feBlend mode="normal" in="SourceGraphic" in2="BackgroundImageFix" result="shape"/>
<feColorMatrix in="SourceAlpha" type="matrix" values="0 0 0 0 0 0 0 0 0 0 0 0 0 0 0 0 0 0 127 0" result="hardAlpha"/>
<feOffset dy="4"/>
<feGaussianBlur stdDeviation="15"/>
<feComposite in2="hardAlpha" operator="arithmetic" k2="-1" k3="1"/>
<feColorMatrix type="matrix" values="0 0 0 0 0 0 0 0 0 0 0 0 0 0 0 0 0 0 1 0"/>
<feBlend mode="normal" in2="shape" result="effect1_innerShadow_616_23"/>
</filter>
<clipPath id="clip0_616_23">
<rect width="531" height="637" fill="white" transform="translate(176 -422)"/>
</clipPath>
</defs>
</svg>
