<svg width="768" height="311" viewBox="0 0 768 311" fill="none" xmlns="http://www.w3.org/2000/svg">
<g filter="url(#filter0_i_616_22)">
<path fill-rule="evenodd" clip-rule="evenodd" d="M12.8531 204.474C70.4497 188.189 23.1988 145.628 43.3077 119.075C67.7349 86.8205 260.307 46.0331 247.765 -7.27134C209.978 -92.1431 96.2524 -40.7165 67.7046 -71.3598C40.0287 -101.067 -8.51341 -147.643 -46.2064 -162.815C-82.2854 -177.337 -159.563 -176.941 -171.656 -106.961C-179.372 -54.3239 -155.411 -41.4811 -172.531 -14.5785C-190.659 13.9076 -219.148 37.5298 -221.619 71.1725C-224.296 107.632 -213.784 148.063 -186.239 172.095C-159.43 195.485 -118.969 185.682 -83.8151 191.399C-50.9171 196.749 -17.5369 218.21 12.8531 204.474Z" fill="#162C4E"/>
</g>
<g filter="url(#filter1_i_616_22)">
<path fill-rule="evenodd" clip-rule="evenodd" d="M1197.57 -9.31553C1219.89 -115.308 1111.77 -75.3548 1086.05 -129.899C1054.81 -196.156 1151.4 -539.057 1055.24 -563.758C887.132 -574.532 873.996 -349.051 800.754 -329.055C729.749 -309.669 614.09 -271.021 557.997 -223.365C504.305 -177.75 439.895 -53.5714 542.102 24.626C620.142 81.2334 660.936 53.6271 689.73 103.675C720.22 156.668 734.176 222.18 786.126 254.416C842.426 289.35 916.206 306.486 977.986 282.54C1038.12 259.233 1056.43 186.15 1095.2 134.617C1131.48 86.3911 1194.05 50.9328 1197.57 -9.31553Z" fill="#162C4E"/>
</g>
<defs>
<filter id="filter0_i_616_22" x="-222.022" y="-170.391" width="470.374" height="383.384" filterUnits="userSpaceOnUse" color-interpolation-filters="sRGB">
<feFlood flood-opacity="0" result="BackgroundImageFix"/>
<feBlend mode="normal" in="SourceGraphic" in2="BackgroundImageFix" result="shape"/>
<feColorMatrix in="SourceAlpha" type="matrix" values="0 0 0 0 0 0 0 0 0 0 0 0 0 0 0 0 0 0 127 0" result="hardAlpha"/>
<feOffset dy="4"/>
<feGaussianBlur stdDeviation="15"/>
<feComposite in2="hardAlpha" operator="arithmetic" k2="-1" k3="1"/>
<feColorMatrix type="matrix" values="0 0 0 0 0 0 0 0 0 0 0 0 0 0 0 0 0 0 1 0"/>
<feBlend mode="normal" in2="shape" result="effect1_innerShadow_616_22"/>
</filter>
<filter id="filter1_i_616_22" x="488.023" y="-564.132" width="712.56" height="861.802" filterUnits="userSpaceOnUse" color-interpolation-filters="sRGB">
<feFlood flood-opacity="0" result="BackgroundImageFix"/>
<feBlend mode="normal" in="SourceGraphic" in2="BackgroundImageFix" result="shape"/>
<feColorMatrix in="SourceAlpha" type="matrix" values="0 0 0 0 0 0 0 0 0 0 0 0 0 0 0 0 0 0 127 0" result="hardAlpha"/>
<feOffset dy="4"/>
<feGaussianBlur stdDeviation="15"/>
<feComposite in2="hardAlpha" operator="arithmetic" k2="-1" k3="1"/>
<feColorMatrix type="matrix" values="0 0 0 0 0 0 0 0 0 0 0 0 0 0 0 0 0 0 1 0"/>
<feBlend mode="normal" in2="shape" result="effect1_innerShadow_616_22"/>
</filter>
</defs>
</svg>
