<svg width="61" height="60" viewBox="0 0 61 60" fill="none" xmlns="http://www.w3.org/2000/svg">
<path d="M25.637 46.4164C26.5216 41.1655 30.5532 37.8348 36.6629 37.8348H52.5397C58.4653 37.8348 59.724 33.9529 59.724 33.9529C58.8393 39.2038 56.4287 42.5345 50.319 42.5345H34.0326C27.2935 42.5345 25.637 46.4164 25.637 46.4164Z" fill="#DF2325"/>
<path d="M52.2662 43.5361C50.9184 45.5571 49.3568 45.7349 46.394 45.7349C43.4312 45.7349 39.9519 45.8001 35.1366 45.7349C29.9532 45.6638 25.9513 47.9988 25.6248 53.0778C26.9726 51.0569 28.7241 50.6894 31.6869 50.6894C34.6497 50.6894 36.431 50.6243 41.2462 50.6894C46.4237 50.7665 50.4731 48.4848 52.2662 43.5361Z" fill="#EE4523"/>
<path d="M25.6365 57.2916C25.6365 55.2707 28.4093 54.1861 31.7224 54.1861C35.0355 54.1861 41.448 54.6247 44.1733 52.7045C43.4311 54.921 36.6624 60 29.8996 60C26.8358 60 25.6365 58.5243 25.6365 57.2916Z" fill="#FE5F3E"/>
<path d="M13.6086 25.5911C18.8692 26.4741 22.2061 30.4983 22.2061 36.5966V52.4441C22.2061 58.3588 26.0951 59.6152 26.0951 59.6152C20.8345 58.7322 17.4977 56.326 17.4977 50.2276V33.9712C17.4977 27.2387 13.6086 25.5911 13.6086 25.5911Z" fill="#172C4F"/>
<path d="M16.4927 52.1652C14.468 50.8199 14.2899 49.2612 14.2899 46.3039C14.2899 43.3465 14.2246 39.8736 14.2899 35.0672C14.3611 29.8933 12.0218 25.8989 6.93335 25.5729C8.95803 26.9182 9.32615 28.6666 9.32615 31.6239C9.32615 34.5812 9.39146 36.3592 9.32615 41.1656C9.2549 46.3394 11.5349 50.3754 16.4927 52.1652Z" fill="#264A74"/>
<path d="M2.71936 25.5927C4.74404 25.5927 5.8306 28.3603 5.8306 31.6673C5.8306 34.9684 5.39123 41.375 7.31497 44.0952C5.08841 43.3544 0 36.5982 0 29.842C0 26.7839 1.48437 25.5927 2.71936 25.5927Z" fill="#345A87"/>
<path d="M34.4802 13.5836C33.5955 18.8345 29.564 22.1652 23.4543 22.1652H7.57155C1.64595 22.1652 0.387207 26.047 0.387207 26.047C1.27189 20.7962 3.68251 17.4655 9.79217 17.4655H26.0787C32.8236 17.4655 34.4802 13.5836 34.4802 13.5836Z" fill="#DF2325"/>
<path d="M7.85034 16.4639C9.19815 14.4429 10.7597 14.2651 13.7225 14.2651C16.6853 14.2651 20.1647 14.1999 24.98 14.2651C30.1634 14.3363 34.1652 12.0012 34.4918 6.92218C33.144 8.94312 31.3924 9.31057 28.4296 9.31057C25.4668 9.31057 23.6856 9.37576 18.8703 9.31057C13.6928 9.23352 9.64346 11.5152 7.85034 16.4639Z" fill="#EE4523"/>
<path d="M34.4811 2.70841C34.4811 4.72935 31.7083 5.81391 28.3952 5.81391C25.0821 5.81391 18.6696 5.37535 15.9443 7.29554C16.6865 5.07902 23.4552 0 30.218 0C33.2818 0 34.4811 1.4757 34.4811 2.70841Z" fill="#FE5F3E"/>
<path d="M46.5082 34.4093C41.2476 33.5263 37.9108 29.5022 37.9108 23.4038V7.55628C37.9108 1.64162 34.0217 0.385193 34.0217 0.385193C39.2823 1.26824 42.6192 3.67441 42.6192 9.77279V26.0292C42.6192 32.7618 46.5082 34.4093 46.5082 34.4093Z" fill="#172C4F"/>
<path d="M43.6226 7.83496C45.6472 9.18028 45.8254 10.739 45.8254 13.6963C45.8254 16.6536 45.8907 20.1265 45.8254 24.933C45.7541 30.1068 48.0935 34.1013 53.1819 34.4272C51.1572 33.0819 50.7891 31.3336 50.7891 28.3763C50.7891 25.4189 50.7238 23.641 50.7891 18.8346C50.8603 13.6607 48.5803 9.62477 43.6226 7.83496Z" fill="#264A74"/>
<path d="M57.3969 34.4094C55.3722 34.4094 54.2856 31.6417 54.2856 28.3347C54.2856 25.0336 54.725 18.6271 52.8013 15.9068C55.0219 16.6476 60.1103 23.4038 60.1103 30.1541C60.1162 33.2181 58.6319 34.4094 57.3969 34.4094Z" fill="#345A87"/>
</svg>
